999
Inkscape export via OpenSCAD DXF Export
  0
SECTION
  2
HEADER
  9
$ACADVER
  1
AC1014
  9
$HANDSEED
  5
FFFF
  9
$MEASUREMENT
 70
     1
  0
ENDSEC
  0
SECTION
  2
TABLES
  0
TABLE
  2
VPORT
  5
8
330
0
100
AcDbSymbolTable
 70
     4
  0
VPORT
  5
2E
330
8
100
AcDbSymbolTableRecord
100
AcDbViewportTableRecord
  2
*ACTIVE
 70
     0
 10
0.0
 20
0.0
 11
1.0
 21
1.0
 12
210.0
 22
148.5
 13
0.0
 23
0.0
 14
10.0
 24
10.0
 15
10.0
 25
10.0
 16
0.0
 26
0.0
 36
1.0
 17
0.0
 27
0.0
 37
0.0
 40
341.0
 41
1.24
 42
50.0
 43
0.0
 44
0.0
 50
0.0
 51
0.0
 71
     0
 72
   100
 73
     1
 74
     3
 75
     0
 76
     0
 77
     0
 78
     0
  0
ENDTAB
  0
TABLE
  2
LTYPE
  5
5
330
0
100
AcDbSymbolTable
 70
     1
  0
LTYPE
  5
14
330
5
100
AcDbSymbolTableRecord
100
AcDbLinetypeTableRecord
  2
BYBLOCK
 70
     0
  3

 72
    65
 73
     0
 40
0.0
  0
LTYPE
  5
15
330
5
100
AcDbSymbolTableRecord
100
AcDbLinetypeTableRecord
  2
BYLAYER
 70
     0
  3

 72
    65
 73
     0
 40
0.0
  0
LTYPE
  5
16
330
5
100
AcDbSymbolTableRecord
100
AcDbLinetypeTableRecord
  2
CONTINUOUS
 70
     0
  3
Solid line
 72
    65
 73
     0
 40
0.0
  0
ENDTAB
  0
TABLE
0
TABLE
2
LAYER
5
2
330
0
100
AcDbSymbolTable
70
1
0
LAYER
5
10
330
2
100
AcDbSymbolTableRecord
100
AcDbLayerTableRecord
2
Layer_1
70
0
62
7
6
CONTINUOUS
0
ENDTAB
0
ENDSEC
  0
ENDTAB
  0
TABLE
  2
STYLE
  5
3
330
0
100
AcDbSymbolTable
 70
     1
  0
STYLE
  5
11
330
3
100
AcDbSymbolTableRecord
100
AcDbTextStyleTableRecord
  2
STANDARD
 70
     0
 40
0.0
 41
1.0
 50
0.0
 71
     0
 42
2.5
  3
txt
  4

  0
ENDTAB
  0
TABLE
  2
VIEW
  5
6
330
0
100
AcDbSymbolTable
 70
     0
  0
ENDTAB
  0
TABLE
  2
UCS
  5
7
330
0
100
AcDbSymbolTable
 70
     0
  0
ENDTAB
  0
TABLE
  2
APPID
  5
9
330
0
100
AcDbSymbolTable
 70
     2
  0
APPID
  5
12
330
9
100
AcDbSymbolTableRecord
100
AcDbRegAppTableRecord
  2
ACAD
 70
     0
  0
ENDTAB
  0
TABLE
  2
DIMSTYLE
  5
A
330
0
100
AcDbSymbolTable
 70
     1
  0
DIMSTYLE
105
27
330
A
100
AcDbSymbolTableRecord
100
AcDbDimStyleTableRecord
  2
ISO-25
 70
     0
  3

  4

  5

  6

  7

 40
1.0
 41
2.5
 42
0.625
 43
3.75
 44
1.25
 45
0.0
 46
0.0
 47
0.0
 48
0.0
140
2.5
141
2.5
142
0.0
143
0.03937007874016
144
1.0
145
0.0
146
1.0
147
0.625
 71
     0
 72
     0
 73
     0
 74
     0
 75
     0
 76
     0
 77
     1
 78
     8
170
     0
171
     3
172
     1
173
     0
174
     0
175
     0
176
     0
177
     0
178
     0
270
     2
271
     2
272
     2
273
     2
274
     3
340
11
275
     0
280
     0
281
     0
282
     0
283
     0
284
     8
285
     0
286
     0
287
     3
288
     0
  0
ENDTAB
  0
TABLE
  2
BLOCK_RECORD
  5
1
330
0
100
AcDbSymbolTable
 70
     1
  0
BLOCK_RECORD
  5
1F
330
1
100
AcDbSymbolTableRecord
100
AcDbBlockTableRecord
  2
*MODEL_SPACE
  0
BLOCK_RECORD
  5
1B
330
1
100
AcDbSymbolTableRecord
100
AcDbBlockTableRecord
  2
*PAPER_SPACE
  0
ENDTAB
  0
ENDSEC
  0
SECTION
  2
BLOCKS
  0
BLOCK
  5
20
330
1F
100
AcDbEntity
  8
0
100
AcDbBlockBegin
  2
*MODEL_SPACE
 70
     0
 10
0.0
 20
0.0
 30
0.0
  3
*MODEL_SPACE
  1

  0
ENDBLK
  5
21
330
1F
100
AcDbEntity
  8
0
100
AcDbBlockEnd
  0
BLOCK
  5
1C
330
1B
100
AcDbEntity
 67
     1
  8
0
100
AcDbBlockBegin
  2
*PAPER_SPACE
  1

  0
ENDBLK
  5
1D
330
1B
100
AcDbEntity
 67
     1
  8
0
100
AcDbBlockEnd
  0
ENDSEC
  0
SECTION
  2
ENTITIES
0
DIMENSION
5
83
100
AcDbEntity
62
256
370
-1
6
ByLayer
1
total_width
3
Standard
70
0
71
5
72
1
41
1.0
100
AcDbAlignedDimension
13
3.871233
23
0.000000
33
0.0
14
41.287807
24
0.000000
34
0.0
50
0.000000
100
AcDbRotatedDimension
0
DIMENSION
5
83
100
AcDbEntity
62
256
370
-1
6
ByLayer
1
total_minx
3
Standard
70
0
71
5
72
1
41
1.0
100
AcDbAlignedDimension
13
3.871233
23
0.000000
33
0.0
14
0.000000
24
0.000000
34
0.0
50
0.000000
100
AcDbRotatedDimension
0
DIMENSION
5
83
100
AcDbEntity
62
256
370
-1
6
ByLayer
1
total_maxx
3
Standard
70
0
71
5
72
1
41
1.0
100
AcDbAlignedDimension
13
0.000000
23
0.000000
33
0.0
14
41.287807
24
0.000000
34
0.0
50
0.000000
100
AcDbRotatedDimension
0
DIMENSION
5
83
100
AcDbEntity
62
256
370
-1
6
ByLayer
1
total_height
3
Standard
70
0
71
5
72
1
41
1.0
100
AcDbAlignedDimension
13
0.000000
23
-18.626978
33
0.0
14
0.000000
24
18.764241
34
0.0
50
90.000000
100
AcDbRotatedDimension
0
DIMENSION
5
83
100
AcDbEntity
62
256
370
-1
6
ByLayer
1
total_miny
3
Standard
70
0
71
5
72
1
41
1.0
100
AcDbAlignedDimension
13
-18.626978
23
0.000000
33
0.0
14
0.000000
24
0.000000
34
0.0
50
0.000000
100
AcDbRotatedDimension
0
DIMENSION
5
83
100
AcDbEntity
62
256
370
-1
6
ByLayer
1
total_maxy
3
Standard
70
0
71
5
72
1
41
1.0
100
AcDbAlignedDimension
13
0.000000
23
0.000000
33
0.0
14
18.764241
24
0.000000
34
0.0
50
0.000000
100
AcDbRotatedDimension
0
DIMENSION
8
Layer_1
5
83
100
AcDbEntity
62
256
370
-1
6
ByLayer
1
Layer_1_width
3
Standard
70
0
71
5
72
1
41
1.0
100
AcDbAlignedDimension
13
3.871233
23
0.000000
33
0.0
14
41.287807
24
0.000000
34
0.0
50
0.000000
100
AcDbRotatedDimension
0
DIMENSION
8
Layer_1
5
83
100
AcDbEntity
62
256
370
-1
6
ByLayer
1
Layer_1_minx
3
Standard
70
0
71
5
72
1
41
1.0
100
AcDbAlignedDimension
13
3.871233
23
0.000000
33
0.0
14
0.000000
24
0.000000
34
0.0
50
0.000000
100
AcDbRotatedDimension
0
DIMENSION
8
Layer_1
5
83
100
AcDbEntity
62
256
370
-1
6
ByLayer
1
Layer_1_maxx
3
Standard
70
0
71
5
72
1
41
1.0
100
AcDbAlignedDimension
13
0.000000
23
0.000000
33
0.0
14
41.287807
24
0.000000
34
0.0
50
0.000000
100
AcDbRotatedDimension
0
DIMENSION
8
Layer_1
5
83
100
AcDbEntity
62
256
370
-1
6
ByLayer
1
Layer_1_height
3
Standard
70
0
71
5
72
1
41
1.0
100
AcDbAlignedDimension
13
0.000000
23
-18.626978
33
0.0
14
0.000000
24
18.764241
34
0.0
50
90.000000
100
AcDbRotatedDimension
0
DIMENSION
8
Layer_1
5
83
100
AcDbEntity
62
256
370
-1
6
ByLayer
1
Layer_1_miny
3
Standard
70
0
71
5
72
1
41
1.0
100
AcDbAlignedDimension
13
-18.626978
23
0.000000
33
0.0
14
0.000000
24
0.000000
34
0.0
50
0.000000
100
AcDbRotatedDimension
0
DIMENSION
8
Layer_1
5
83
100
AcDbEntity
62
256
370
-1
6
ByLayer
1
Layer_1_maxy
3
Standard
70
0
71
5
72
1
41
1.0
100
AcDbAlignedDimension
13
0.000000
23
0.000000
33
0.0
14
18.764241
24
0.000000
34
0.0
50
0.000000
100
AcDbRotatedDimension
62
0
0
LWPOLYLINE
100
AcDbPolyline
8
Layer_1
90
20
70
0
10
35.148619
20
18.764241
30
0.0
10
35.146643
20
18.761024
30
0.0
10
34.865936
20
18.245580
30
0.0
10
34.325216
20
17.732643
30
0.0
10
33.472425
20
17.213307
30
0.0
10
32.399927
20
16.752287
30
0.0
10
29.443875
20
15.949052
30
0.0
10
26.229070
20
15.112662
30
0.0
10
25.407404
20
14.728766
30
0.0
10
25.044007
20
14.343812
30
0.0
10
25.079217
20
14.041108
30
0.0
10
25.399956
20
13.721302
30
0.0
10
26.844608
20
13.067978
30
0.0
10
29.005540
20
12.493449
30
0.0
10
33.246791
20
11.629856
30
0.0
10
34.600106
20
11.324553
30
0.0
10
35.107598
20
11.196012
30
0.0
10
35.192197
20
15.060467
30
0.0
10
35.148258
20
18.764233
30
0.0
10
35.148619
20
18.764241
30
0.0
62
0
0
LWPOLYLINE
100
AcDbPolyline
8
Layer_1
90
25
70
0
10
24.216439
20
13.710725
30
0.0
10
24.216439
20
6.923422
30
0.0
10
24.216439
20
0.136121
30
0.0
10
24.515721
20
0.136121
30
0.0
10
28.146239
20
0.291987
30
0.0
10
31.108570
20
0.614138
30
0.0
10
33.744104
20
1.110217
30
0.0
10
35.985184
20
1.764398
30
0.0
10
37.764156
20
2.560850
30
0.0
10
38.870986
20
3.312347
30
0.0
10
39.667455
20
4.138374
30
0.0
10
40.150705
20
5.034897
30
0.0
10
40.317880
20
5.997885
30
0.0
10
40.234929
20
6.769165
30
0.0
10
39.551057
20
7.908698
30
0.0
10
38.255567
20
8.941072
30
0.0
10
36.371981
20
9.851999
30
0.0
10
33.923822
20
10.627193
30
0.0
10
30.698310
20
11.322956
30
0.0
10
28.398632
20
11.817280
30
0.0
10
26.561298
20
12.353207
30
0.0
10
25.218766
20
12.919533
30
0.0
10
24.403493
20
13.505053
30
0.0
10
24.216439
20
13.710725
30
0.0
10
24.216439
20
13.710725
30
0.0
62
0
0
LWPOLYLINE
100
AcDbPolyline
8
Layer_1
90
42
70
0
10
41.282445
20
5.303729
30
0.0
10
41.181601
20
4.918086
30
0.0
10
40.643218
20
3.719334
30
0.0
10
39.774614
20
2.689391
30
0.0
10
38.152366
20
1.610221
30
0.0
10
35.998971
20
0.709340
30
0.0
10
33.372832
20
0.006311
30
0.0
10
30.332350
20
-0.479301
30
0.0
10
24.801991
20
-0.840836
30
0.0
10
24.135094
20
-0.860112
30
0.0
10
22.233627
20
-0.892249
30
0.0
10
22.277547
20
-1.158985
30
0.0
10
22.498767
20
-2.343226
30
0.0
10
22.864750
20
-2.491060
30
0.0
10
23.404759
20
-2.709590
30
0.0
10
23.611335
20
-2.809209
30
0.0
10
24.569414
20
-2.081310
30
0.0
10
25.690104
20
-1.351808
30
0.0
10
26.043130
20
-1.500594
30
0.0
10
26.887260
20
-2.274133
30
0.0
10
28.000285
20
-3.427366
30
0.0
10
28.186882
20
-3.966141
30
0.0
10
27.474463
20
-4.967200
30
0.0
10
26.796162
20
-5.847753
30
0.0
10
26.991338
20
-6.251068
30
0.0
10
27.245095
20
-6.843992
30
0.0
10
27.394769
20
-7.068948
30
0.0
10
28.616309
20
-7.260165
30
0.0
10
28.988786
20
-7.313192
30
0.0
10
29.894801
20
-6.296057
30
0.0
10
30.892697
20
-5.217453
30
0.0
10
31.477458
20
-5.036294
30
0.0
10
33.785065
20
-4.525785
30
0.0
10
35.807390
20
-3.782959
30
0.0
10
37.740865
20
-2.800291
30
0.0
10
39.229549
20
-1.794842
30
0.0
10
40.298241
20
-0.746636
30
0.0
10
40.971741
20
0.364301
30
0.0
10
41.240108
20
1.349355
30
0.0
10
41.285685
20
3.391597
30
0.0
10
41.282552
20
5.303737
30
0.0
10
41.282445
20
5.303729
30
0.0
62
0
0
LWPOLYLINE
100
AcDbPolyline
8
Layer_1
90
27
70
0
10
5.452262
20
-0.112934
30
0.0
10
5.712539
20
-0.362001
30
0.0
10
10.208387
20
-4.451416
30
0.0
10
13.240297
20
-7.136447
30
0.0
10
13.274469
20
-7.130013
30
0.0
10
13.441990
20
-6.700990
30
0.0
10
13.684368
20
-6.132165
30
0.0
10
13.764062
20
-5.981123
30
0.0
10
13.516816
20
-5.653324
30
0.0
10
12.819038
20
-4.782421
30
0.0
10
12.327576
20
-4.144406
30
0.0
10
12.290391
20
-3.863305
30
0.0
10
13.573768
20
-2.391438
30
0.0
10
14.395365
20
-1.643337
30
0.0
10
14.826217
20
-1.441794
30
0.0
10
16.210441
20
-2.362511
30
0.0
10
16.887085
20
-2.871882
30
0.0
10
17.098557
20
-2.765826
30
0.0
10
17.641798
20
-2.534443
30
0.0
10
18.001287
20
-2.383401
30
0.0
10
18.141165
20
-1.525346
30
0.0
10
18.232261
20
-0.879399
30
0.0
10
15.953426
20
-0.789412
30
0.0
10
7.378144
20
-0.275226
30
0.0
10
5.816617
20
-0.143462
30
0.0
10
5.452262
20
-0.112951
30
0.0
10
5.452262
20
-0.112934
30
0.0
62
0
0
LWPOLYLINE
100
AcDbPolyline
8
Layer_1
90
47
70
0
10
41.285685
20
-4.208778
30
0.0
10
41.077470
20
-4.748681
30
0.0
10
40.189337
20
-6.504689
30
0.0
10
38.951242
20
-8.010617
30
0.0
10
37.306662
20
-9.321690
30
0.0
10
35.199072
20
-10.493134
30
0.0
10
33.204029
20
-11.322744
30
0.0
10
31.157017
20
-12.001978
30
0.0
10
30.693447
20
-12.135328
30
0.0
10
29.722383
20
-11.397794
30
0.0
10
29.385675
20
-11.118208
30
0.0
10
28.562616
20
-11.253181
30
0.0
10
27.324809
20
-11.544016
30
0.0
10
27.084082
20
-12.112832
30
0.0
10
26.879109
20
-12.586853
30
0.0
10
27.040165
20
-12.813412
30
0.0
10
27.762363
20
-13.726110
30
0.0
10
28.349564
20
-14.516669
30
0.0
10
28.346431
20
-14.720729
30
0.0
10
27.165525
20
-16.101016
30
0.0
10
26.149751
20
-16.997143
30
0.0
10
25.836738
20
-17.132377
30
0.0
10
25.595899
20
-17.095641
30
0.0
10
24.785867
20
-16.497894
30
0.0
10
23.901016
20
-15.827848
30
0.0
10
23.736726
20
-15.708936
30
0.0
10
23.546412
20
-15.808577
30
0.0
10
22.980384
20
-16.051195
30
0.0
10
22.606254
20
-16.195826
30
0.0
10
22.497265
20
-17.020118
30
0.0
10
22.328129
20
-18.152958
30
0.0
10
24.252335
20
-17.908700
30
0.0
10
24.254310
20
-17.838021
30
0.0
10
24.286845
20
-17.911926
30
0.0
10
26.611230
20
-17.547165
30
0.0
10
29.710269
20
-16.863819
30
0.0
10
32.414851
20
-16.020662
30
0.0
10
35.003445
20
-14.879980
30
0.0
10
37.453959
20
-13.507575
30
0.0
10
38.755251
20
-12.568052
30
0.0
10
39.766998
20
-11.603817
30
0.0
10
40.507898
20
-10.594015
30
0.0
10
40.996647
20
-9.517788
30
0.0
10
41.239067
20
-8.366980
30
0.0
10
41.287807
20
-6.193230
30
0.0
10
41.285832
20
-4.208778
30
0.0
10
41.285685
20
-4.208778
30
0.0
62
0
0
LWPOLYLINE
100
AcDbPolyline
8
Layer_1
90
26
70
0
10
20.332161
20
-6.095214
30
0.0
10
19.914136
20
-6.122533
30
0.0
10
18.887032
20
-6.414230
30
0.0
10
18.006175
20
-7.083423
30
0.0
10
17.405982
20
-7.896486
30
0.0
10
17.156083
20
-8.605672
30
0.0
10
17.077348
20
-9.322057
30
0.0
10
17.169435
20
-10.035076
30
0.0
10
17.432003
20
-10.734165
30
0.0
10
18.045207
20
-11.542410
30
0.0
10
18.887316
20
-12.169024
30
0.0
10
19.850738
20
-12.466344
30
0.0
10
21.160110
20
-12.387607
30
0.0
10
21.946827
20
-12.059074
30
0.0
10
22.621034
20
-11.531874
30
0.0
10
23.139770
20
-10.849659
30
0.0
10
23.460075
20
-10.056084
30
0.0
10
23.550849
20
-9.326121
30
0.0
10
23.472581
20
-8.598140
30
0.0
10
23.233539
20
-7.908990
30
0.0
10
22.841991
20
-7.295525
30
0.0
10
22.315772
20
-6.780701
30
0.0
10
21.709610
20
-6.403954
30
0.0
10
21.042188
20
-6.172916
30
0.0
10
20.332183
20
-6.095217
30
0.0
10
20.332161
20
-6.095214
30
0.0
62
0
0
LWPOLYLINE
100
AcDbPolyline
8
Layer_1
90
31
70
0
10
13.230524
20
-11.492590
30
0.0
10
9.642317
20
-14.180844
30
0.0
10
7.820538
20
-15.548261
30
0.0
10
5.660474
20
-17.171163
30
0.0
10
3.944431
20
-18.456640
30
0.0
10
3.871233
20
-18.553062
30
0.0
10
5.663734
20
-18.626978
30
0.0
10
15.823299
20
-18.599659
30
0.0
10
16.356835
20
-18.567537
30
0.0
10
18.538057
20
-18.453437
30
0.0
10
18.365642
20
-17.463627
30
0.0
10
18.159066
20
-16.303480
30
0.0
10
17.838626
20
-16.113871
30
0.0
10
17.283980
20
-15.896955
30
0.0
10
17.010699
20
-15.779650
30
0.0
10
16.122602
20
-16.459340
30
0.0
10
15.153149
20
-17.184021
30
0.0
10
14.910793
20
-17.229013
30
0.0
10
14.583305
20
-17.075925
30
0.0
10
13.578634
20
-16.149220
30
0.0
10
12.694215
20
-15.241425
30
0.0
10
12.431897
20
-14.760906
30
0.0
10
12.537437
20
-14.444072
30
0.0
10
13.123186
20
-13.658628
30
0.0
10
13.708758
20
-12.903393
30
0.0
10
13.830760
20
-12.744324
30
0.0
10
13.653462
20
-12.377963
30
0.0
10
13.396465
20
-11.764155
30
0.0
10
13.271206
20
-11.499024
30
0.0
10
13.230524
20
-11.492590
30
0.0
10
13.230524
20
-11.492590
30
0.0
  0
ENDSEC
  0
SECTION
  2
OBJECTS
  0
DICTIONARY
  5
C
330
0
100
AcDbDictionary
  3
ACAD_GROUP
350
D
  3
ACAD_MLINESTYLE
350
17
  0
DICTIONARY
  5
D
330
C
100
AcDbDictionary
  0
DICTIONARY
  5
1A
330
C
100
AcDbDictionary
  0
DICTIONARY
  5
17
330
C
100
AcDbDictionary
  3
STANDARD
350
18
  0
DICTIONARY
  5
19
330
C
100
AcDbDictionary
  0
ENDSEC
  0
EOF
